# xmcd
#
# Track frame offsets: 
#        150
#        8370
#        16515
#        29373
#        39183
#        46300
#        51477
#        57368
#        64767
#        77165
#        87547
#        98685
#        108639
#        118652
#        127983
#        136946
#        146594
#        156315
#        164907
#        175136
#        185043
#        197601
#        207609
#        217138
#        226658
#        237187
#        248618
#        262377
#        273716
#        286242
#        298524
#        306859
#
# Disc length: 4208 seconds
#
# Revision: 0
# Processed by: cddbd v1.5.2PL0 Copyright (c) Steve Scherf et al.
# Submitted via: ExactAudioCopy v0.95b4
#
DISCID=da106e20
DTITLE=Earl Scruggs - Banjo Study
DYEAR=1900
DGENRE=Bluegrass
TTITLE0=Foggy Mountain Rock
TTITLE1=Mamma Blues
TTITLE2=Reuben
TTITLE3=Jed Clampett
TTITLE4=Fiddle and Banjo
TTITLE5=Martha White Theme
TTITLE6=You Cant Stop Me from Dreaming
TTITLE7=Little Darlin Pal of Mine
TTITLE8=Hor Corn, Cold Corn
TTITLE9=Flint Hill Special
TTITLE10=Bugle Call Rag
TTITLE11=Sally Ann
TTITLE12=Sally Goddin
TTITLE13=Lonesome Road Blues
TTITLE14=Cumberland Gap
TTITLE15=John Henry
TTITLE16=Cripple Creek
TTITLE17=Fireball Mail
TTITLE18=Home Sweet Home
TTITLE19=Shuckin the Corn
TTITLE20=Polka on a Banjo
TTITLE21=Ground Speed
TTITLE22=Randy Lynn Rag
TTITLE23=Foggy Mountain Special
TTITLE24=Foggy Mountain Chimes
TTITLE25=Dear Old Dixie
TTITLE26=Earls Breakdown
TTITLE27=Farewell Blues
TTITLE28=Pike County Breakdown
TTITLE29=Foggy Mountain Breakdown
TTITLE30=Pick Along
TTITLE31=Careless Love
EXTD=
EXTT0=
EXTT1=
EXTT2=
EXTT3=
EXTT4=
EXTT5=
EXTT6=
EXTT7=
EXTT8=
EXTT9=
EXTT10=
EXTT11=
EXTT12=
EXTT13=
EXTT14=
EXTT15=
EXTT16=
EXTT17=
EXTT18=
EXTT19=
EXTT20=
EXTT21=
EXTT22=
EXTT23=
EXTT24=
EXTT25=
EXTT26=
EXTT27=
EXTT28=
EXTT29=
EXTT30=
EXTT31=
PLAYORDER=
